<?xml version="1.0" standalone="no"?>
<!DOCTYPE svg PUBLIC "-//W3C//DTD SVG 20010904//EN"
 "http://www.w3.org/TR/2001/REC-SVG-20010904/DTD/svg10.dtd">
<svg version="1.0" xmlns="http://www.w3.org/2000/svg"
 width="1067.000000pt" height="1067.000000pt" viewBox="0 0 1067.000000 1067.000000"
 preserveAspectRatio="xMidYMid meet">
<metadata>
Created by potrace 1.11, written by Peter Selinger 2001-2013
</metadata>
<g transform="translate(0.000000,1067.000000) scale(0.100000,-0.100000)"
fill="#000000" stroke="none">
<path d="M130 7404 l0 -3135 171 -337 c94 -185 231 -454 304 -597 138 -270
432 -849 529 -1040 l56 -110 862 -434 c475 -238 1232 -619 1683 -846 451 -227
1001 -503 1222 -614 l403 -201 577 291 c318 160 796 402 1063 536 267 135 854
431 1305 659 451 227 902 455 1003 506 l184 93 124 245 c69 135 183 358 253
495 71 138 179 349 241 470 62 121 150 292 195 380 45 88 119 233 164 321 l81
162 0 3146 c0 1730 -2 3146 -5 3146 -3 0 -281 -274 -618 -609 -336 -335 -778
-774 -982 -976 -203 -201 -576 -571 -827 -822 l-457 -455 -2332 0 -2333 0
-1429 1431 c-786 787 -1431 1431 -1433 1431 -2 0 -4 -1411 -4 -3136z"/>
</g>
</svg>
